name Walk6.mot
datacolumns 19
datarows 30
range 0.92600000 0.95500000
endheader

                time	   L_ground_force_vx	   L_ground_force_vy	   L_ground_force_vz	   L_ground_force_px	   L_ground_force_py	   L_ground_force_pz	   R_ground_force_vx	   R_ground_force_vy	   R_ground_force_vz	   R_ground_force_px	   R_ground_force_py	   R_ground_force_pz	   L_ground_torque_x	   L_ground_torque_y	   L_ground_torque_z	   R_ground_torque_x	   R_ground_torque_y	   R_ground_torque_z	
          0.92600000	         -3.01536139	         64.81712627	         -5.86838878	          0.00293383	          0.00000000	          0.00154440	         -0.00000000	          0.00000000	          0.00000000	         -0.00000000	          0.00000000	         -0.00000000	          0.00000000	          0.06593660	          0.00000000	          0.00000000	         -0.00000000	          0.00000000	
          0.92700000	         -3.53783936	         70.96213833	         -6.47033996	         -0.01557403	          0.00000000	          0.00136747	         -0.00000000	          0.00000000	          0.00000000	         -0.00000000	          0.00000000	         -0.00000000	          0.00000000	          0.07613102	          0.00000000	          0.00000000	         -0.00000000	          0.00000000	
          0.92800000	         -4.10729632	         77.28367765	         -7.08302094	         -0.03402241	          0.00000000	          0.00119256	         -0.00000000	          0.00000000	          0.00000000	         -0.00000000	          0.00000000	         -0.00000000	          0.00000000	          0.08704346	          0.00000000	          0.00000000	         -0.00000000	          0.00000000	
          0.92900000	         -4.72549069	         83.77405781	         -7.70526065	         -0.05236177	          0.00000000	          0.00102016	         -0.00000000	          0.00000000	          0.00000000	         -0.00000000	          0.00000000	         -0.00000000	          0.00000000	          0.09869394	          0.00000000	          0.00000000	         -0.00000000	          0.00000000	
          0.93000000	         -5.39411640	         90.42438497	         -8.33577738	         -0.07054204	          0.00000000	          0.00085070	         -0.00000000	          0.00000000	          0.00000000	         -0.00000000	          0.00000000	         -0.00000000	          0.00000000	          0.11110111	          0.00000000	          0.00000000	         -0.00000000	          0.00000000	
          0.93100000	         -6.11479104	         97.22447081	         -8.97317224	         -0.08851279	          0.00000000	          0.00068465	         -0.00000000	          0.00000000	          0.00000000	         -0.00000000	          0.00000000	         -0.00000000	          0.00000000	          0.12428207	          0.00000000	          0.00000000	         -0.00000000	          0.00000000	
          0.93200000	         -6.88903548	        104.16279671	         -9.61593327	         -0.10622461	          0.00000000	          0.00052236	         -0.00000000	          0.00000000	          0.00000000	         -0.00000000	          0.00000000	         -0.00000000	          0.00000000	          0.13825208	          0.00000000	          0.00000000	         -0.00000000	          0.00000000	
          0.93300000	         -7.71824403	        111.22655337	        -10.26245188	         -0.12363142	          0.00000000	          0.00036415	         -0.00000000	          0.00000000	          0.00000000	         -0.00000000	          0.00000000	         -0.00000000	          0.00000000	          0.15302424	          0.00000000	          0.00000000	         -0.00000000	          0.00000000	
          0.93400000	         -8.60365143	        118.40174015	        -10.91104226	         -0.14069190	          0.00000000	          0.00021020	         -0.00000000	         -0.00000000	          0.00000000	         -0.00000000	          0.00000000	         -0.00000000	          0.00000000	          0.16860913	          0.00000000	          0.00000000	         -0.00000000	          0.00000000	
          0.93500000	         -9.54630061	        125.67331643	        -11.55995794	         -0.15736960	          0.00000000	          0.00006063	          0.00000000	         -0.00000000	          0.00000000	         -0.00000000	          0.00000000	         -0.00000000	          0.00000000	          0.18501455	          0.00000000	          0.00000000	         -0.00000000	          0.00000000	
          0.93600000	        -10.54700939	        133.02542247	        -12.20740731	         -0.17363264	          0.00000000	         -0.00008454	          0.00000000	         -0.00000000	          0.00000000	         -0.00000000	          0.00000000	         -0.00000000	          0.00000000	          0.20224505	          0.00000000	          0.00000000	         -0.00000000	          0.00000000	
          0.93700000	        -11.60633490	        140.44167740	        -12.85156957	         -0.18945345	          0.00000000	         -0.00022533	          0.00000000	         -0.00000000	          0.00000000	         -0.00000000	          0.00000000	         -0.00000000	          0.00000000	          0.22030161	          0.00000000	          0.00000000	         -0.00000000	          0.00000000	
          0.93800000	        -12.72453636	        147.90554087	        -13.49061110	         -0.20480849	          0.00000000	         -0.00036183	          0.00000000	         -0.00000000	         -0.00000000	         -0.00000000	          0.00000000	         -0.00000000	          0.00000000	          0.23918125	          0.00000000	          0.00000000	         -0.00000000	          0.00000000	
          0.93900000	        -13.90153798	        155.40070768	        -14.12270178	         -0.21967798	          0.00000000	         -0.00049416	          0.00000000	         -0.00000000	         -0.00000000	         -0.00000000	          0.00000000	         -0.00000000	          0.00000000	          0.25887677	          0.00000000	          0.00000000	          0.00000000	          0.00000000	
          0.94000000	        -15.13689469	        162.91149215	        -14.74603090	         -0.23404568	          0.00000000	         -0.00062246	          0.00000000	         -0.00000000	         -0.00000000	         -0.00000000	          0.00000000	         -0.00000000	          0.00000000	          0.27937651	          0.00000000	          0.00000000	          0.00000000	          0.00000000	
          0.94100000	        -16.42976444	        170.42315687	        -15.35882213	         -0.24789862	          0.00000000	         -0.00074691	          0.00000000	         -0.00000001	         -0.00000000	         -0.00000000	          0.00000000	         -0.00000000	          0.00000000	          0.30066425	          0.00000000	          0.00000000	          0.00000000	          0.00000000	
          0.94200000	        -17.77889029	        177.92215024	        -15.95934750	         -0.26122690	          0.00000000	         -0.00086768	          0.00000000	         -0.00000001	         -0.00000000	         -0.00000000	          0.00000000	         -0.00000000	          0.00000000	          0.32271909	          0.00000000	          0.00000000	          0.00000000	          0.00000000	
          0.94300000	        -19.18259484	        185.39623546	        -16.54594036	         -0.27402346	          0.00000000	         -0.00098498	          0.00000000	         -0.00000001	         -0.00000000	         -0.00000000	          0.00000000	         -0.00000000	          0.00000000	          0.34551533	          0.00000000	          0.00000000	          0.00000000	          0.00000000	
          0.94400000	        -20.63878739	        192.83451424	        -17.11700762	         -0.28628385	          0.00000000	         -0.00109900	          0.00000000	         -0.00000001	         -0.00000000	         -0.00000000	          0.00000000	         -0.00000000	          0.00000000	          0.36902253	          0.00000000	          0.00000000	          0.00000000	          0.00000000	
          0.94500000	        -22.14498265	        200.22736496	        -17.67104092	         -0.29800605	          0.00000000	         -0.00120994	          0.00000000	         -0.00000001	         -0.00000000	         -0.00000000	          0.00000000	         -0.00000000	          0.00000000	          0.39320557	          0.00000000	          0.00000000	          0.00000000	          0.00000000	
          0.94600000	        -23.69832798	        207.56632474	        -18.20662656	         -0.30919026	          0.00000000	         -0.00131801	          0.00000000	         -0.00000001	         -0.00000000	         -0.00000000	          0.00000000	         -0.00000000	          0.00000000	          0.41802473	          0.00000000	          0.00000000	          0.00000000	          0.00000000	
          0.94700000	        -25.29563585	        214.84394629	        -18.72245347	         -0.31983872	          0.00000000	         -0.00142342	          0.00000000	         -0.00000001	         -0.00000000	         -0.00000000	          0.00000000	         -0.00000000	          0.00000000	          0.44343592	          0.00000000	          0.00000000	          0.00000000	          0.00000000	
          0.94800000	        -26.93341824	        222.05365548	        -19.21731870	         -0.32995550	          0.00000000	         -0.00152637	          0.00000000	         -0.00000001	         -0.00000000	         -0.00000000	          0.00000000	         -0.00000000	          0.00000000	          0.46939096	          0.00000000	          0.00000000	          0.00000000	          0.00000000	
          0.94900000	        -28.60792053	        229.18962796	        -19.69013036	         -0.33954637	          0.00000000	         -0.00162706	          0.00000000	         -0.00000002	         -0.00000000	         -0.00000000	          0.00000000	         -0.00000000	          0.00000000	          0.49583791	          0.00000000	          0.00000000	          0.00000000	          0.00000000	
          0.95000000	        -30.31515406	        236.24669375	        -20.13990791	         -0.34861860	          0.00000000	         -0.00172567	          0.00000000	         -0.00000002	         -0.00000000	         -0.00000000	          0.00000000	         -0.00000000	          0.00000000	          0.52272169	          0.00000000	          0.00000000	          0.00000000	          0.00000000	
          0.95100000	        -32.05092709	        243.22027162	        -20.56578066	         -0.35718083	          0.00000000	         -0.00182241	          0.00000000	         -0.00000002	         -0.00000000	         -0.00000000	          0.00000000	         -0.00000000	          0.00000000	          0.54998465	          0.00000000	          0.00000000	          0.00000000	          0.00000000	
          0.95200000	        -33.81087489	        250.10632906	        -20.96698491	         -0.36524289	          0.00000000	         -0.00191746	          0.00000000	         -0.00000002	         -0.00000000	         -0.00000000	          0.00000000	         -0.00000000	          0.00000000	          0.57756723	          0.00000000	          0.00000000	          0.00000000	          0.00000000	
          0.95300000	        -35.59048994	        256.90136089	        -21.34286042	         -0.37281569	          0.00000000	         -0.00201103	          0.00000000	         -0.00000002	         -0.00000000	         -0.00000000	          0.00000000	         -0.00000000	          0.00000000	          0.60540847	          0.00000000	          0.00000000	          0.00000000	          0.00000000	
          0.95400000	        -37.38515316	        263.60237828	        -21.69284665	         -0.37991106	          0.00000000	         -0.00210331	          0.00000000	         -0.00000002	         -0.00000000	         -0.00000000	          0.00000000	         -0.00000000	          0.00000000	          0.63344648	          0.00000000	          0.00000000	          0.00000000	          0.00000000	
          0.95500000	        -39.19016704	        270.20690103	        -22.01647910	         -0.38654164	          0.00000000	         -0.00219451	          0.00000000	         -0.00000003	         -0.00000000	         -0.00000000	          0.00000000	         -0.00000000	          0.00000000	          0.66161889	          0.00000000	          0.00000000	          0.00000000	          0.00000000	
